<?xml version="1.0" encoding="iso-8859-1"?>
<!-- Generator: Adobe Illustrator 19.0.0, SVG Export Plug-In . SVG Version: 6.00 Build 0)  -->
<svg version="1.1" id="Capa_1" xmlns="http://www.w3.org/2000/svg" xmlns:xlink="http://www.w3.org/1999/xlink" x="0px" y="0px"
	 viewBox="0 0 512 512" style="enable-background:new 0 0 512 512;" xml:space="preserve">
<path style="fill:#DA5B65;" d="M462.799,77.54H49.2c-23.033,0-41.7,18.667-41.7,41.69v60.639L256,210.964l248.5-31.095V119.23
	C504.5,96.207,485.833,77.54,462.799,77.54z"/>
<path style="fill:#D4D2D3;" d="M504.5,179.869v255.039c0,23.023-18.667,41.69-41.7,41.69H49.2c-23.033,0-41.7-18.667-41.7-41.69
	V179.869H504.5z"/>
<path style="fill:#C0344A;" d="M49.2,77.54c-4.878,0-9.555,0.845-13.906,2.383v21.695c0,23.742,19.315,43.057,43.057,43.057
	s43.058-19.315,43.058-43.057V77.54H49.2z"/>
<path style="fill:#BAB8B9;" d="M78.352,35.402L78.352,35.402c-9.973,0-18.057,8.084-18.057,18.057v48.16
	c0,9.973,8.084,18.057,18.057,18.057l0,0c9.973,0,18.057-8.084,18.057-18.057v-48.16C96.409,43.486,88.325,35.402,78.352,35.402z"/>
<path style="fill:#C0344A;" d="M153.727,77.54v24.079c0,23.742,19.315,43.057,43.058,43.057c23.741,0,43.057-19.315,43.057-43.057
	V77.54H153.727z"/>
<path style="fill:#BAB8B9;" d="M196.784,35.402L196.784,35.402c-9.973,0-18.057,8.084-18.057,18.057v48.16
	c0,9.973,8.084,18.057,18.057,18.057l0,0c9.973,0,18.057-8.084,18.057-18.057v-48.16C214.841,43.486,206.757,35.402,196.784,35.402z
	"/>
<path style="fill:#C0344A;" d="M315.216,144.676c23.742,0,43.058-19.315,43.058-43.057V77.54H272.16v24.079
	C272.159,125.36,291.475,144.676,315.216,144.676z"/>
<path style="fill:#BAB8B9;" d="M315.216,35.402L315.216,35.402c-9.973,0-18.057,8.084-18.057,18.057v48.16
	c0,9.973,8.084,18.057,18.057,18.057l0,0c9.973,0,18.057-8.084,18.057-18.057v-48.16C333.273,43.486,325.189,35.402,315.216,35.402z
	"/>
<path style="fill:#C0344A;" d="M433.648,144.676c23.741,0,43.057-19.315,43.057-43.057V79.923c-4.35-1.539-9.028-2.383-13.906-2.383
	H390.59v24.079C390.591,125.36,409.906,144.676,433.648,144.676z"/>
<path style="fill:#BAB8B9;" d="M433.648,35.402L433.648,35.402c-9.973,0-18.057,8.084-18.057,18.057v48.16
	c0,9.973,8.084,18.057,18.057,18.057l0,0c9.973,0,18.057-8.084,18.057-18.057v-48.16C451.705,43.486,443.621,35.402,433.648,35.402z
	"/>
<path d="M447.208,442.314c12.686,0,23.007-10.321,23.007-23.006V237.16c0-12.686-10.321-23.007-23.007-23.007
	c0,0-382.296,0-382.418,0c-12.532,0-23.007,10.488-23.006,23.007v182.148c0,12.686,10.321,23.006,23.007,23.006H447.208z
	 M115.846,335.733h44.062v38.291h-44.062L115.846,335.733z M100.846,374.024H56.785v-38.291h44.061V374.024z M293.031,335.733
	h44.062v38.291h-44.062V335.733z M278.031,374.024h-44.062v-38.291h44.062V374.024z M293.031,320.733v-38.29h44.062v38.29H293.031z
	 M278.031,320.733h-44.062v-38.29h44.062V320.733z M218.969,320.733h-44.062v-38.29h44.062V320.733z M218.969,335.733v38.291
	h-44.062v-38.291L218.969,335.733L218.969,335.733z M159.908,389.024v38.29h-44.062v-38.29H159.908z M174.908,389.024h44.062v38.29
	h-44.062V389.024z M233.969,389.024h44.062v38.29H233.97L233.969,389.024z M293.031,389.024h44.062v38.29h-44.062V389.024z
	 M352.093,389.024h44.062v38.29h-44.062V389.024z M352.092,374.024v-38.291h44.062v38.291H352.092z M411.154,335.733h44.062v38.291
	h-44.062V335.733z M455.215,320.733h-44.062v-38.29h44.062V320.733z M396.154,320.733h-44.062v-38.29h44.062V320.733z
	 M352.092,267.443v-38.291h44.062v38.291H352.092z M337.092,267.443H293.03v-38.291h44.062V267.443z M278.03,267.443h-44.062
	v-38.291h44.062V267.443z M218.969,267.443h-44.062v-38.291h44.062V267.443z M159.907,267.443h-44.062v-38.291h44.062V267.443z
	 M159.907,282.443v38.29h-44.062v-38.29H159.907z M100.846,320.733H56.784v-38.29h44.061L100.846,320.733z M56.785,419.308v-30.284
	h44.061v38.29H64.792C60.376,427.314,56.785,423.723,56.785,419.308z M447.208,427.314h-36.054v-38.29h44.061v30.284
	C455.215,423.723,451.624,427.314,447.208,427.314z M455.215,237.16v30.284h-44.062v-38.291h36.056
	C451.624,229.153,455.215,232.745,455.215,237.16z M59.129,231.498c1.512-1.513,3.523-2.345,5.662-2.345h36.055v38.291H56.784
	V237.16C56.784,235.021,57.617,233.01,59.129,231.498z"/>
<path d="M512,434.908V119.23c0-27.124-22.072-49.19-49.201-49.19h-3.594V53.459c0-14.092-11.465-25.557-25.557-25.557
	S408.09,39.367,408.09,53.459V70.04h-67.318V53.459c0-14.092-11.465-25.557-25.557-25.557s-25.557,11.465-25.557,25.557V70.04
	H222.34V53.459c0-14.092-11.465-25.557-25.557-25.557c-14.092,0-25.557,11.465-25.557,25.557V70.04h-67.318V53.459
	c0-14.092-11.465-25.557-25.557-25.557S52.794,39.367,52.794,53.459V70.04H49.2C22.071,70.04,0,92.106,0,119.23v315.678
	c0,27.124,22.071,49.19,49.2,49.19h45.295c4.142,0,7.5-3.358,7.5-7.5s-3.358-7.5-7.5-7.5H49.2c-18.858,0-34.2-15.337-34.2-34.19
	V187.369h373.682c4.142,0,7.5-3.358,7.5-7.5s-3.358-7.5-7.5-7.5H15V119.23c0-18.852,15.342-34.19,34.2-34.19h3.594v16.579
	c0,14.092,11.465,25.557,25.557,25.557s25.557-11.465,25.557-25.557V85.04h67.318c0,0,0,16.578,0,16.579
	c0,13.84,11.637,25.557,25.557,25.557c13.924,0,25.557-11.648,25.557-25.557V85.04h67.317v16.579
	c0,14.092,11.465,25.557,25.557,25.557c13.851,0,25.557-11.734,25.557-25.557V85.04h67.318v16.579
	c0,14.092,11.465,25.557,25.557,25.557c14.093,0,25.558-11.465,25.558-25.557V85.04h3.594c18.858,0,34.201,15.338,34.201,34.19
	v53.139h-78.318c-4.142,0-7.5,3.358-7.5,7.5s3.358,7.5,7.5,7.5H497v247.539c0,18.853-15.343,34.19-34.201,34.19H124.495
	c-4.142,0-7.5,3.358-7.5,7.5s3.358,7.5,7.5,7.5h338.304C489.928,484.098,512,462.032,512,434.908z M78.352,42.902
	c5.821,0,10.557,4.736,10.557,10.557v48.16c0,5.821-4.736,10.557-10.557,10.557s-10.557-4.736-10.557-10.557v-48.16
	C67.794,47.638,72.53,42.902,78.352,42.902z M186.227,53.459c0-5.821,4.736-10.557,10.557-10.557s10.557,4.736,10.557,10.557
	c0,0,0,48.135,0,48.16c0,5.736-4.827,10.557-10.557,10.557c-5.726,0-10.557-4.837-10.557-10.557V53.459z M304.658,53.459
	c0-5.821,4.736-10.557,10.557-10.557s10.557,4.736,10.557,10.557v48.16c0,5.753-4.806,10.557-10.557,10.557
	c-5.821,0-10.557-4.736-10.557-10.557V53.459z M433.647,42.902c5.821,0,10.557,4.736,10.557,10.557c0,0,0,48.08,0,48.16
	c0,5.717-4.852,10.557-10.557,10.557c-5.821,0-10.557-4.736-10.557-10.557v-48.16C423.09,47.638,427.826,42.902,433.647,42.902z"/>
<g>
</g>
<g>
</g>
<g>
</g>
<g>
</g>
<g>
</g>
<g>
</g>
<g>
</g>
<g>
</g>
<g>
</g>
<g>
</g>
<g>
</g>
<g>
</g>
<g>
</g>
<g>
</g>
<g>
</g>
</svg>
